# xmcd CD database file
#
# Track frame offsets:
#	150
#	28397
#	52652
#	85270
#	105477
#	133045
#	147332
#	187050
#	215330
#	245312
#	279970
#
# Disc length: 4527 seconds
#
# Revision: 1
# Processed by: cddbd v1.4PL0 Copyright (c) Steve Scherf et al.
# Submitted via: CDex 1.50
#
DISCID=9911ad0b
DTITLE=Kirk MacDonald - The Revellers
DYEAR=1990
DGENRE=Jazz
TTITLE0=224 Blues
TTITLE1=Forward Motion
TTITLE2=Body and Soul
TTITLE3=Turning Point
TTITLE4=The Devil
TTITLE5=Embraceable  You
TTITLE6=Sweet Spot
TTITLE7=Poinciana
TTITLE8=The Revellers
TTITLE9=Carnival
TTITLE10=But Not For Me
EXTD=YEAR: 1990
EXTT0=
EXTT1=
EXTT2=
EXTT3=
EXTT4=
EXTT5=
EXTT6=
EXTT7=
EXTT8=
EXTT9=
EXTT10=
PLAYORDER=
